# xmcd
#
# Track frame offsets:
#	150
#	20745
#	40812
#	59340
#	79680
#	105320
#	129467
#	149797
#	166530
#	191972
#
# Disc length: 2886 seconds
#
# Revision: 0
# Processed by: cddbd v1.5.2PL0 Copyright (c) Steve Scherf et al.
# Submitted via: EasyCDDAExtractor 15.1.0.1
#
DISCID=860b440a
DTITLE=Andre Lee - 1998 So Good
DYEAR=1998
DGENRE=Blues
TTITLE0=Take hold of your life
TTITLE1=I'm going crazy
TTITLE2=Something about your loving
TTITLE3=Don't take your love away
TTITLE4=That look in your eye
TTITLE5=So good
TTITLE6=Love ballad
TTITLE7=Can this be real
TTITLE8=My shining star
TTITLE9=Tell me that you want my love
EXTD=
EXTT0=
EXTT1=
EXTT2=
EXTT3=
EXTT4=
EXTT5=
EXTT6=
EXTT7=
EXTT8=
EXTT9=
PLAYORDER=
